<svg width="286" height="46" viewBox="0 0 286 46" fill="none" xmlns="http://www.w3.org/2000/svg">
<g id="logo-escrita">
<g id="studio-hair">
<path d="M14.728 5.096C17.4533 5.096 19.824 5.488 21.84 6.272C23.856 7.056 25.7413 8.25067 27.496 9.856L23.856 14.056C22.4747 12.8987 21.0747 12.0587 19.656 11.536C18.2747 11.0133 16.7813 10.752 15.176 10.752C13.384 10.752 11.928 11.1627 10.808 11.984C9.72533 12.768 9.184 13.888 9.184 15.344C9.184 16.3147 9.38933 17.1173 9.8 17.752C10.248 18.3867 11.032 18.984 12.152 19.544C13.272 20.104 14.9333 20.72 17.136 21.392C20.944 22.5867 23.8 24.08 25.704 25.872C27.6453 27.6267 28.616 30.2027 28.616 33.6C28.616 35.9147 28.0187 37.968 26.824 39.76C25.6667 41.552 23.9867 42.952 21.784 43.96C19.5813 44.968 16.968 45.472 13.944 45.472C10.9947 45.472 8.344 45.0053 5.992 44.072C3.67733 43.1013 1.68 41.7947 0 40.152L3.808 35.896C5.30133 37.1653 6.85067 38.136 8.456 38.808C10.0613 39.4427 11.8347 39.76 13.776 39.76C15.904 39.76 17.6213 39.256 18.928 38.248C20.2347 37.24 20.888 35.8213 20.888 33.992C20.888 32.872 20.664 31.9573 20.216 31.248C19.768 30.5013 19.0027 29.848 17.92 29.288C16.8373 28.6907 15.2693 28.0747 13.216 27.44C9.10933 26.1707 6.14133 24.64 4.312 22.848C2.48267 21.056 1.568 18.704 1.568 15.792C1.568 13.664 2.128 11.7973 3.248 10.192C4.368 8.58667 5.91733 7.336 7.896 6.44C9.912 5.544 12.1893 5.096 14.728 5.096Z" fill="#FCEDE9"/>
<path d="M51.6639 43.232C50.6186 43.9787 49.4426 44.5387 48.1359 44.912C46.8666 45.2853 45.5599 45.472 44.2159 45.472C41.3039 45.4347 39.0826 44.6133 37.5519 43.008C36.0586 41.3653 35.3119 38.9573 35.3119 35.784V20.16H30.6639V15.008H35.3119V8.456L42.4799 7.616V15.008H49.3679L48.6399 20.16H42.4799V35.616C42.4799 37.072 42.7226 38.1173 43.2079 38.752C43.7306 39.3867 44.5333 39.704 45.6159 39.704C46.6986 39.704 47.8746 39.3493 49.1439 38.64L51.6639 43.232Z" fill="#FCEDE9"/>
<path d="M79.3839 44.632H73.1679L72.7759 40.488C71.6933 42.168 70.4053 43.4187 68.9119 44.24C67.4559 45.0613 65.7199 45.472 63.7039 45.472C61.0533 45.472 58.9999 44.6693 57.5439 43.064C56.1253 41.4213 55.4159 39.1627 55.4159 36.288V15.008H62.5839V35.392C62.5839 37.072 62.8639 38.2667 63.4239 38.976C64.0213 39.6853 64.9546 40.04 66.2239 40.04C68.5013 40.04 70.4986 38.64 72.2159 35.84V15.008H79.3839V44.632Z" fill="#FCEDE9"/>
<path d="M112.936 3.136V44.632H106.608L106.104 40.88C105.171 42.2987 103.976 43.4187 102.52 44.24C101.102 45.0613 99.4776 45.472 97.6483 45.472C94.0269 45.472 91.2456 44.072 89.3043 41.272C87.3629 38.472 86.3923 34.664 86.3923 29.848C86.3923 26.824 86.8776 24.136 87.8483 21.784C88.8189 19.3947 90.2002 17.528 91.9922 16.184C93.8216 14.84 95.9309 14.168 98.3203 14.168C101.158 14.168 103.64 15.232 105.768 17.36V2.352L112.936 3.136ZM99.6643 40.04C100.934 40.04 102.054 39.7413 103.024 39.144C103.995 38.5093 104.91 37.5387 105.768 36.232V22.68C104.91 21.6347 104.032 20.8507 103.136 20.328C102.278 19.8053 101.27 19.544 100.112 19.544C98.2083 19.544 96.6962 20.4027 95.5762 22.12C94.4936 23.8 93.9522 26.3573 93.9522 29.792C93.9522 33.4507 94.4376 36.0827 95.4082 37.688C96.3789 39.256 97.7976 40.04 99.6643 40.04Z" fill="#FCEDE9"/>
<path d="M128.708 15.008V44.632H121.54V15.008H128.708ZM125.068 0C126.412 0 127.494 0.429333 128.316 1.288C129.174 2.10933 129.604 3.136 129.604 4.368C129.604 5.6 129.174 6.62667 128.316 7.448C127.494 8.26933 126.412 8.68 125.068 8.68C123.761 8.68 122.678 8.26933 121.82 7.448C120.998 6.62667 120.588 5.6 120.588 4.368C120.588 3.136 120.998 2.10933 121.82 1.288C122.678 0.429333 123.761 0 125.068 0Z" fill="#FCEDE9"/>
<path d="M149.44 14.168C153.808 14.168 157.206 15.568 159.632 18.368C162.096 21.1307 163.328 24.9387 163.328 29.792C163.328 32.8907 162.768 35.6347 161.648 38.024C160.528 40.376 158.923 42.2053 156.832 43.512C154.742 44.8187 152.259 45.472 149.384 45.472C145.016 45.472 141.6 44.0907 139.136 41.328C136.672 38.528 135.44 34.6827 135.44 29.792C135.44 26.6933 136 23.968 137.12 21.616C138.24 19.264 139.846 17.4347 141.936 16.128C144.064 14.8213 146.566 14.168 149.44 14.168ZM149.44 19.6C145.147 19.6 143 22.9973 143 29.792C143 33.3013 143.523 35.896 144.568 37.576C145.651 39.2187 147.256 40.04 149.384 40.04C151.512 40.04 153.099 39.2 154.144 37.52C155.227 35.84 155.768 33.264 155.768 29.792C155.768 26.32 155.227 23.7627 154.144 22.12C153.099 20.44 151.531 19.6 149.44 19.6Z" fill="#FCEDE9"/>
<path d="M205.439 44.632V27.328H191.663V44.632H184.271V5.936H191.663V21.448H205.439V5.936H212.887V44.632H205.439Z" fill="#FCEDE9"/>
<path d="M243.568 36.792C243.568 37.9493 243.736 38.808 244.072 39.368C244.446 39.8907 245.025 40.3013 245.809 40.6L244.297 45.36C242.617 45.2107 241.235 44.8 240.152 44.128C239.107 43.456 238.305 42.4293 237.745 41.048C236.737 42.5413 235.467 43.6613 233.936 44.408C232.443 45.1173 230.763 45.472 228.896 45.472C225.947 45.472 223.614 44.632 221.896 42.952C220.179 41.272 219.32 39.0693 219.32 36.344C219.32 33.1333 220.478 30.688 222.792 29.008C225.144 27.2907 228.486 26.432 232.816 26.432H236.512V24.752C236.512 22.848 236.065 21.5227 235.169 20.776C234.31 19.992 232.91 19.6 230.969 19.6C228.803 19.6 226.19 20.1227 223.128 21.168L221.449 16.296C225.145 14.8773 228.729 14.168 232.201 14.168C239.779 14.168 243.568 17.5653 243.568 24.36V36.792ZM230.801 40.264C233.227 40.264 235.131 39.0507 236.512 36.624V30.632H233.544C228.915 30.632 226.6 32.3493 226.6 35.784C226.6 37.2027 226.955 38.304 227.665 39.088C228.374 39.872 229.419 40.264 230.801 40.264Z" fill="#FCEDE9"/>
<path d="M259.411 15.008V44.632H252.243V15.008H259.411ZM255.771 0C257.115 0 258.197 0.429333 259.019 1.288C259.877 2.10933 260.307 3.136 260.307 4.368C260.307 5.6 259.877 6.62667 259.019 7.448C258.197 8.26933 257.115 8.68 255.771 8.68C254.464 8.68 253.381 8.26933 252.523 7.448C251.701 6.62667 251.291 5.6 251.291 4.368C251.291 3.136 251.701 2.10933 252.523 1.288C253.381 0.429333 254.464 0 255.771 0Z" fill="#FCEDE9"/>
<path d="M282.664 14.224C283.746 14.224 284.735 14.3547 285.632 14.616L284.4 21.56C283.504 21.336 282.626 21.224 281.767 21.224C280.013 21.224 278.632 21.8587 277.624 23.128C276.616 24.36 275.813 26.264 275.216 28.84V44.632H268.047V15.008H274.263L274.935 20.832C275.645 18.704 276.672 17.08 278.016 15.96C279.36 14.8027 280.909 14.224 282.664 14.224Z" fill="#FCEDE9"/>
</g>
</g>
</svg>
